<svg id="visual" viewBox="0 0 900 600" width="900" height="600" xmlns="http://www.w3.org/2000/svg" xmlns:xlink="http://www.w3.org/1999/xlink" version="1.1"><rect width="900" height="600" fill="#fefefe"></rect><g><g transform="translate(665 216)"><path d="M0 -135.3L105.8 -84.4L131.9 30.1L58.7 121.9L-58.7 121.9L-131.9 30.1L-105.8 -84.4Z" fill="#9e7148"></path></g><g transform="translate(559 570)"><path d="M0 -29L22.7 -18.1L28.3 6.5L12.6 26.1L-12.6 26.1L-28.3 6.5L-22.7 -18.1Z" fill="#9e7148"></path></g><g transform="translate(4 155)"><path d="M0 -35L27.4 -21.8L34.1 7.8L15.2 31.5L-15.2 31.5L-34.1 7.8L-27.4 -21.8Z" fill="#9e7148"></path></g><g transform="translate(346 344)"><path d="M0 -104L81.3 -64.8L101.4 23.1L45.1 93.7L-45.1 93.7L-101.4 23.1L-81.3 -64.8Z" fill="#9e7148"></path></g><g transform="translate(126 593)"><path d="M0 -61L47.7 -38L59.5 13.6L26.5 55L-26.5 55L-59.5 13.6L-47.7 -38Z" fill="#9e7148"></path></g><g transform="translate(392 15)"><path d="M0 -75L58.6 -46.8L73.1 16.7L32.5 67.6L-32.5 67.6L-73.1 16.7L-58.6 -46.8Z" fill="#9e7148"></path></g><g transform="translate(871 432)"><path d="M0 -35L27.4 -21.8L34.1 7.8L15.2 31.5L-15.2 31.5L-34.1 7.8L-27.4 -21.8Z" fill="#9e7148"></path></g></g></svg>